<svg xmlns="http://www.w3.org/2000/svg" viewBox="0 0 600 800" preserveAspectRatio="xMidYMid slice">
  <defs>
    <radialGradient id="bg" cx="50%" cy="45%" r="65%">
      <stop offset="0%" stop-color="#8b1a1a" stop-opacity="0.5"/>
      <stop offset="40%" stop-color="#3a0a14" stop-opacity="0.4"/>
      <stop offset="100%" stop-color="#0a0a0a" stop-opacity="1"/>
    </radialGradient>
    <linearGradient id="bottle3" x1="0" y1="0" x2="0" y2="1">
      <stop offset="0" stop-color="#2a0a0a"/>
      <stop offset="1" stop-color="#0a0a0a"/>
    </linearGradient>
    <linearGradient id="liquid3" x1="0" y1="0" x2="0" y2="1">
      <stop offset="0" stop-color="#c44060" stop-opacity="0.95"/>
      <stop offset="1" stop-color="#5a0a14" stop-opacity="0.95"/>
    </linearGradient>
  </defs>
  <rect width="600" height="800" fill="#0a0a0a"/>
  <rect width="600" height="800" fill="url(#bg)"/>
  <g transform="translate(300 410)">
    <rect x="-22" y="-235" width="44" height="50" rx="3" fill="url(#bottle3)" stroke="#8b1a1a" stroke-opacity="0.65"/>
    <path d="M -55 -185 Q -55 -150 -78 -110 Q -90 -80 -90 -40 L -90 200 Q -90 230 -60 230 L 60 230 Q 90 230 90 200 L 90 -40 Q 90 -80 78 -110 Q 55 -150 55 -185 Z" fill="url(#bottle3)" stroke="#8b1a1a" stroke-opacity="0.7" stroke-width="1"/>
    <path d="M -78 -10 L -78 195 Q -78 215 -60 215 L 60 215 Q 78 215 78 195 L 78 -10 Z" fill="url(#liquid3)" opacity="0.92"/>
    <rect x="-50" y="60" width="100" height="80" fill="#0a0a0a" stroke="#8b1a1a" stroke-opacity="0.7"/>
    <text x="0" y="95" text-anchor="middle" fill="#c9a84c" font-family="Georgia, serif" font-style="italic" font-size="16" letter-spacing="2">Guayaba</text>
    <text x="0" y="120" text-anchor="middle" fill="#f5edd6" font-family="Georgia, serif" font-style="italic" font-size="26" letter-spacing="1">Na</text>
  </g>
  <g fill="#c44060" opacity="0.5">
    <circle cx="110" cy="190" r="2.5"/>
    <circle cx="500" cy="240" r="2"/>
    <circle cx="90" cy="490" r="2.2"/>
    <circle cx="510" cy="560" r="3"/>
    <circle cx="170" cy="660" r="1.8"/>
  </g>
</svg>
