<?xml version="1.0" encoding="UTF-8"?>
<svg id="Capa_1" data-name="Capa 1" xmlns="http://www.w3.org/2000/svg" viewBox="0 0 604.47 263.24">
  <g>
    <path d="M32.27,120.56c0-11.77,9.01-20.12,21.29-20.12,7.13,0,12.88,2.6,16.64,7.3l-6.96,6.3c-2.43-2.93-5.42-4.53-9.12-4.53-6.36,0-10.78,4.42-10.78,11.06s4.42,11.06,10.78,11.06c3.7,0,6.69-1.6,9.12-4.53l6.96,6.3c-3.76,4.7-9.51,7.3-16.64,7.3-12.27,0-21.29-8.35-21.29-20.13Z"/>
    <path d="M103.08,132.39h-16.36l-3.04,7.52h-11.17l17.08-38.7h10.78l17.14,38.7h-11.39l-3.04-7.52ZM99.87,124.32l-4.98-12.38-4.98,12.38h9.95Z"/>
    <path d="M120.64,136.43l3.59-8.07c3.43,2.27,8.29,3.81,12.77,3.81s6.3-1.27,6.3-3.15c0-6.14-22-1.66-22-16.03,0-6.91,5.64-12.55,17.14-12.55,5.03,0,10.23,1.16,14.04,3.37l-3.37,8.13c-3.7-1.99-7.35-2.99-10.73-2.99-4.59,0-6.25,1.55-6.25,3.48,0,5.92,21.95,1.49,21.95,15.76,0,6.74-5.64,12.49-17.14,12.49-6.36,0-12.66-1.71-16.31-4.26Z"/>
    <path d="M187.8,132.39h-16.36l-3.04,7.52h-11.17l17.08-38.7h10.78l17.14,38.7h-11.39l-3.04-7.52ZM184.6,124.32l-4.98-12.38-4.98,12.38h9.95Z"/>
    <path d="M261.86,139.91l-.11-20.51-9.95,16.7h-4.86l-9.9-16.14v19.96h-10.12v-38.7h9.01l13.6,22.34,13.27-22.34h9.01l.11,38.7h-10.06Z"/>
    <path d="M313.49,131.45v8.46h-31.07v-38.7h30.35v8.46h-19.51v6.52h17.19v8.18h-17.19v7.08h20.23Z"/>
    <path d="M342.72,126.04v13.88h-10.95v-14.04l-14.76-24.66h11.55l9.18,15.37,9.18-15.37h10.62l-14.82,24.83Z"/>
    <path d="M386.55,132.39h-16.36l-3.04,7.52h-11.17l17.08-38.7h10.78l17.14,38.7h-11.39l-3.04-7.52ZM383.34,124.32l-4.98-12.38-4.98,12.38h9.95Z"/>
    <path d="M443.64,101.21v38.7h-10.95v-15.09h-14.93v15.09h-10.95v-38.7h10.95v14.54h14.93v-14.54h10.95Z"/>
    <path d="M453.8,122.66v-21.45h10.95v21.12c0,6.63,2.76,9.29,7.35,9.29s7.3-2.65,7.3-9.29v-21.12h10.78v21.45c0,11.56-6.75,18.02-18.19,18.02s-18.19-6.47-18.19-18.02Z"/>
    <path d="M525.44,132.39h-16.36l-3.04,7.52h-11.17l17.08-38.7h10.78l17.14,38.7h-11.39l-3.04-7.52ZM522.23,124.32l-4.98-12.38-4.98,12.38h9.95Z"/>
    <path d="M543.17,120.56c0-11.77,9.01-20.12,21.28-20.12,7.13,0,12.88,2.6,16.64,7.3l-6.96,6.3c-2.43-2.93-5.42-4.53-9.12-4.53-6.36,0-10.78,4.42-10.78,11.06s4.42,11.06,10.78,11.06c3.7,0,6.69-1.6,9.12-4.53l6.96,6.3c-3.76,4.7-9.51,7.3-16.64,7.3-12.27,0-21.28-8.35-21.28-20.13Z"/>
  </g>
  <g>
    <path d="M185.83,175.07c-1.34.17-1.43.3-1.43,1.58v1.82c0,.76.02,1.47.13,2.05-1.34.3-3.09.78-4.91.78-4.91,0-7.89-3.05-7.89-7.39,0-4.56,3.72-7.28,8.04-7.28,2.2,0,3.83.43,4.49.54.04.8.15,2.12.32,3.48l-.65.13c-.52-1.84-1.14-2.61-2.51-3.07-.5-.17-1.38-.28-2.01-.28-3.31,0-5.45,2.27-5.45,6.23,0,3.43,1.77,6.85,5.96,6.85.73,0,1.4-.15,1.84-.37.45-.26.73-.5.73-1.38v-1.77c0-1.58-.17-1.75-2.25-1.9v-.63h5.55v.63Z"/>
    <path d="M191.84,180.97v-.61c1.77-.19,1.95-.28,1.95-2.12v-8.58c0-1.86-.17-1.94-1.95-2.14v-.61h5.79v.61c-1.79.19-1.97.28-1.97,2.14v8.58c0,1.86.17,1.92,1.97,2.12v.61h-5.79Z"/>
    <path d="M219.07,167.53c-1.38.15-1.84.37-1.9,1.36-.02.69-.06,1.6-.06,3.61v8.67h-.82l-9.25-11.3v5.4c0,1.95.06,2.92.11,3.55.04,1.1.58,1.43,2.14,1.55v.61h-5.25v-.61c1.34-.11,1.86-.43,1.95-1.49.06-.69.11-1.66.11-3.63v-5.51c0-.6-.04-.95-.43-1.43-.41-.54-.87-.67-1.92-.78v-.61h3.24l9.16,10.87v-5.3c0-2.01-.04-2.94-.11-3.59-.06-.97-.56-1.28-2.29-1.38v-.61h5.34v.61Z"/>
    <path d="M236.34,177.53c-.13.56-.71,2.79-.93,3.44h-10.5v-.61c2.01-.15,2.16-.35,2.16-2.12v-8.53c0-1.92-.24-2.03-1.86-2.18v-.61h6.61c2.03,0,2.87-.02,3.13-.04.02.54.11,2.16.19,3.3l-.65.11c-.19-.73-.41-1.19-.65-1.64-.35-.71-.84-.86-2.14-.86h-2.05c-.67,0-.71.06-.71.69v4.77h2.4c1.62,0,1.73-.33,1.99-1.79h.67v4.45h-.67c-.28-1.55-.45-1.77-2.01-1.77h-2.38v4.3c0,1.51.48,1.64,1.56,1.66h2.01c1.32,0,1.53-.19,2.01-.76.41-.45.86-1.34,1.17-1.99l.65.17Z"/>
    <path d="M249.57,173.36c2.07.35,3.76,1.34,3.76,3.43,0,1.47-.82,2.64-2.1,3.33-1.12.63-2.23.84-3.74.84h-5.32v-.61c1.84-.17,1.95-.37,1.95-2.07v-8.67c0-1.79-.19-1.94-1.95-2.1v-.61h5.66c1.62,0,2.64.28,3.33.76.76.52,1.28,1.32,1.28,2.42,0,2.03-1.66,2.96-2.87,3.27ZM247.09,173.1c2.38,0,3.35-.95,3.35-2.72,0-1.51-.93-2.68-3-2.68-.6,0-.99.06-1.21.22-.17.13-.24.37-.24,1.06v4.13h1.1ZM245.99,178.24c0,1.56.37,1.95,1.9,1.95,1.68,0,3.33-.91,3.33-3.18s-1.56-3.15-4.19-3.15h-1.04v4.39Z"/>
    <path d="M272.25,181.14c-.28,0-.52-.02-.8-.04-1.58-.11-2.42-.52-3.37-1.86-.8-1.1-1.58-2.46-2.27-3.57-.43-.69-.71-.82-1.82-.82h-.76v3.39c0,1.84.24,1.95,1.97,2.12v.61h-5.77v-.61c1.79-.19,1.95-.28,1.95-2.12v-8.62c0-1.84-.24-1.9-1.95-2.1v-.61h5.51c1.58,0,2.64.19,3.46.73.89.56,1.47,1.53,1.47,2.85,0,1.86-1.19,3.02-2.79,3.72.39.67,1.32,2.12,1.97,3.09.8,1.14,1.21,1.69,1.71,2.23.58.63,1.08.86,1.58.99l-.09.61ZM264.27,174.12c1.12,0,1.84-.17,2.38-.63.84-.63,1.19-1.49,1.19-2.66,0-2.31-1.53-3.15-3.2-3.15-.63,0-.99.08-1.14.22-.19.15-.26.37-.26.93v5.29h1.04Z"/>
    <path d="M285.83,180.97v-.61c1.41-.17,1.58-.39,1.28-1.21-.28-.84-.71-1.92-1.17-3.29h-4.67c-.35.97-.67,1.82-.97,2.7-.48,1.41-.17,1.58,1.6,1.79v.61h-4.99v-.61c1.36-.17,1.71-.32,2.46-2.27l4.47-11.35.69-.13c1.36,3.69,2.85,7.78,4.21,11.52.69,1.88.89,2.05,2.42,2.22v.61h-5.34ZM283.67,169.45c-.69,1.86-1.43,3.83-2.07,5.53h4.04l-1.97-5.53Z"/>
    <path d="M311.4,166.92c3.05,0,4.97.61,6.31,1.88,1.06,1.04,1.84,2.55,1.84,4.63,0,2.53-1.04,4.58-2.7,5.83-1.64,1.23-3.74,1.71-6.4,1.71h-5.06v-.61c1.86-.17,1.95-.32,1.95-2.1v-8.62c0-1.86-.26-1.95-1.95-2.12v-.61h6.01ZM309.22,178.09c0,1.62.69,2.08,2.31,2.08,3.89,0,5.88-2.66,5.88-6.44,0-2.35-.8-4.15-2.51-5.18-.99-.63-2.25-.86-3.69-.86-.97,0-1.49.13-1.71.3-.19.13-.28.37-.28,1.21v8.9Z"/>
    <path d="M337.19,177.53c-.13.56-.72,2.79-.93,3.44h-10.5v-.61c2.01-.15,2.16-.35,2.16-2.12v-8.53c0-1.92-.24-2.03-1.86-2.18v-.61h6.61c2.03,0,2.87-.02,3.13-.04.02.54.11,2.16.19,3.3l-.65.11c-.2-.73-.41-1.19-.65-1.64-.35-.71-.84-.86-2.14-.86h-2.05c-.67,0-.71.06-.71.69v4.77h2.4c1.62,0,1.73-.33,1.99-1.79h.67v4.45h-.67c-.28-1.55-.45-1.77-2.01-1.77h-2.38v4.3c0,1.51.48,1.64,1.56,1.66h2.01c1.32,0,1.53-.19,2.01-.76.41-.45.86-1.34,1.16-1.99l.65.17Z"/>
    <path d="M359.67,180.97v-.61c1.4-.17,1.58-.39,1.27-1.21-.28-.84-.71-1.92-1.17-3.29h-4.67c-.35.97-.67,1.82-.97,2.7-.48,1.41-.17,1.58,1.6,1.79v.61h-4.99v-.61c1.36-.17,1.71-.32,2.46-2.27l4.47-11.35.69-.13c1.36,3.69,2.85,7.78,4.22,11.52.69,1.88.88,2.05,2.42,2.22v.61h-5.34ZM357.51,169.45c-.69,1.86-1.43,3.83-2.07,5.53h4.04l-1.97-5.53Z"/>
    <path d="M383.9,167.53c-1.36.08-1.86.43-1.9,1.43-.02.5-.06,1.41-.06,3.39v2.33c0,2.2-.26,3.89-1.51,5.21-1.02,1.06-2.49,1.38-3.98,1.38-1.25,0-2.59-.26-3.54-1-1.3-.99-1.92-2.48-1.92-5.01v-5.51c0-1.94-.17-2.07-1.9-2.22v-.61h5.68v.61c-1.73.11-1.9.28-1.9,2.22v5.4c0,3.16,1.49,4.88,4.08,4.88,3.07,0,4.04-1.9,4.04-5.49v-2.2c0-1.99-.06-2.81-.11-3.39-.06-.97-.56-1.34-2.16-1.43v-.61h5.19v.61Z"/>
    <path d="M401.34,170.31c-.19-.69-.45-1.4-.69-1.79-.35-.58-.56-.73-1.75-.73h-2.16v10.53c0,1.68.17,1.92,2.23,2.05v.61h-6.29v-.61c2.01-.13,2.18-.35,2.18-2.05v-10.53h-1.97c-1.19,0-1.53.13-1.9.78-.26.43-.43.95-.71,1.75h-.65c.13-1.32.26-2.68.33-3.89h.5c.32.52.56.5,1.17.5h8.56c.61,0,.78-.09,1.1-.5h.52c0,1.02.09,2.57.19,3.82l-.65.06Z"/>
    <path d="M415.4,166.62c3.69,0,7,2.83,7,7.13,0,4.65-3.16,7.54-7.13,7.54s-7.18-3.16-7.18-7.22,2.75-7.46,7.31-7.46ZM414.97,167.42c-2.42,0-4.63,2.03-4.63,6.07s2.2,6.98,5.27,6.98c2.61,0,4.58-1.94,4.58-6.12,0-4.54-2.4-6.94-5.23-6.94Z"/>
    <path d="M441.64,181.14c-.28,0-.52-.02-.8-.04-1.58-.11-2.42-.52-3.37-1.86-.8-1.1-1.58-2.46-2.27-3.57-.43-.69-.71-.82-1.82-.82h-.76v3.39c0,1.84.24,1.95,1.97,2.12v.61h-5.77v-.61c1.79-.19,1.94-.28,1.94-2.12v-8.62c0-1.84-.24-1.9-1.94-2.1v-.61h5.51c1.58,0,2.64.19,3.46.73.89.56,1.47,1.53,1.47,2.85,0,1.86-1.19,3.02-2.79,3.72.39.67,1.32,2.12,1.97,3.09.8,1.14,1.21,1.69,1.71,2.23.58.63,1.08.86,1.58.99l-.08.61ZM433.66,174.12c1.12,0,1.84-.17,2.38-.63.84-.63,1.19-1.49,1.19-2.66,0-2.31-1.53-3.15-3.2-3.15-.63,0-.99.08-1.14.22-.19.15-.26.37-.26.93v5.29h1.04Z"/>
  </g>
</svg>