<svg xmlns="http://www.w3.org/2000/svg" viewBox="0 0 600 800" preserveAspectRatio="xMidYMid slice">
  <defs>
    <radialGradient id="bg" cx="50%" cy="45%" r="65%">
      <stop offset="0%" stop-color="#c8631e" stop-opacity="0.45"/>
      <stop offset="40%" stop-color="#1a2f1e" stop-opacity="0.3"/>
      <stop offset="100%" stop-color="#0a0a0a" stop-opacity="1"/>
    </radialGradient>
    <linearGradient id="bottle2" x1="0" y1="0" x2="0" y2="1">
      <stop offset="0" stop-color="#2a1a10"/>
      <stop offset="1" stop-color="#0a0a0a"/>
    </linearGradient>
    <linearGradient id="liquid2" x1="0" y1="0" x2="0" y2="1">
      <stop offset="0" stop-color="#f0a04a" stop-opacity="0.95"/>
      <stop offset="1" stop-color="#a64e15" stop-opacity="0.95"/>
    </linearGradient>
  </defs>
  <rect width="600" height="800" fill="#0a0a0a"/>
  <rect width="600" height="800" fill="url(#bg)"/>
  <g transform="translate(300 410)">
    <rect x="-22" y="-235" width="44" height="50" rx="3" fill="url(#bottle2)" stroke="#c8631e" stroke-opacity="0.6"/>
    <path d="M -55 -185 Q -55 -150 -78 -110 Q -90 -80 -90 -40 L -90 200 Q -90 230 -60 230 L 60 230 Q 90 230 90 200 L 90 -40 Q 90 -80 78 -110 Q 55 -150 55 -185 Z" fill="url(#bottle2)" stroke="#c8631e" stroke-opacity="0.65" stroke-width="1"/>
    <path d="M -78 -10 L -78 195 Q -78 215 -60 215 L 60 215 Q 78 215 78 195 L 78 -10 Z" fill="url(#liquid2)" opacity="0.9"/>
    <rect x="-50" y="60" width="100" height="80" fill="#0a0a0a" stroke="#c8631e" stroke-opacity="0.7"/>
    <text x="0" y="95" text-anchor="middle" fill="#c8631e" font-family="Georgia, serif" font-style="italic" font-size="16" letter-spacing="2">Naranja</text>
    <text x="0" y="120" text-anchor="middle" fill="#f5edd6" font-family="Georgia, serif" font-style="italic" font-size="26" letter-spacing="1">Na</text>
  </g>
  <g fill="#c8631e" opacity="0.55">
    <circle cx="100" cy="200" r="3"/>
    <circle cx="490" cy="180" r="2.2"/>
    <circle cx="80" cy="500" r="2.5"/>
    <circle cx="520" cy="580" r="2.8"/>
    <circle cx="160" cy="680" r="2"/>
  </g>
</svg>
